HIERARCHY
ROOT Hips
{
	OFFSET 0.00 0.00 0.00
	CHANNELS 6 Xposition Yposition Zposition Zrotation Xrotation Yrotation
	JOINT LeftUpLeg
	{
		OFFSET -0.0757 0.0397 -7.6617
		CHANNELS 3 Zrotation Xrotation Yrotation
		JOINT LeftLowLeg
		{
			OFFSET 15.2656 -10.2276 -2.4882
			CHANNELS 3 Zrotation Xrotation Yrotation
			JOINT LeftFoot
			{
				OFFSET 1.7593 -11.9190 2.0143
				CHANNELS 3 Zrotation Xrotation Yrotation
				JOINT ltoes
				{
					OFFSET 9.3036 -4.3393 -2.6818
					CHANNELS 3 Zrotation Xrotation Yrotation
					End Site
					{
						OFFSET 4.6518 -2.1697 -1.3409
					}
				}
			}
		}
	}
	JOINT RightUpLeg
	{
		OFFSET 0.0757 -0.0397 7.6617
		CHANNELS 3 Zrotation Xrotation Yrotation
		JOINT RightLowLeg
		{
			OFFSET 14.6839 -9.8859 2.1253
			CHANNELS 3 Zrotation Xrotation Yrotation
			JOINT RightFoot
			{
				OFFSET 0.5469 -14.3470 -1.8505
				CHANNELS 3 Zrotation Xrotation Yrotation
				JOINT rtoes
				{
					OFFSET 9.3187 -5.4110 2.1467
					CHANNELS 3 Zrotation Xrotation Yrotation
					End Site
					{
						OFFSET 4.6594 -2.7055 1.0733
					}
				}
			}
		}
	}
	JOINT lowerback
	{
		OFFSET 0.0000 0.0000 0.0000
		CHANNELS 3 Zrotation Xrotation Yrotation
		JOINT upperback
		{
			OFFSET 4.0648 8.7020 -0.2028
			CHANNELS 3 Zrotation Xrotation Yrotation
			JOINT Chest
			{
				OFFSET 7.3825 6.9784 -0.3040
				CHANNELS 3 Zrotation Xrotation Yrotation
				JOINT Neck
				{
					OFFSET 4.4358 8.5222 -0.1095
					CHANNELS 3 Zrotation Xrotation Yrotation
					JOINT Head
					{
						OFFSET 4.9835 9.6154 -1.0739
						CHANNELS 3 Zrotation Xrotation Yrotation
						End Site
						{
							OFFSET 5.1606 14.0449 -1.0522
						}
					}
				}
				JOINT LeftCollar
				{
					OFFSET 4.4358 8.5222 -0.1095
					CHANNELS 3 Zrotation Xrotation Yrotation
					JOINT LeftUpArm
					{
						OFFSET 5.4267 5.8998 -7.1012
						CHANNELS 3 Zrotation Xrotation Yrotation
						JOINT LeftLowArm
						{
							OFFSET 9.8627 -13.7438 0.0994
							CHANNELS 3 Zrotation Xrotation Yrotation
							JOINT LeftHand
							{
								OFFSET 14.6120 -2.3286 -2.2219
								CHANNELS 3 Zrotation Xrotation Yrotation
								JOINT lfingers
								{
									OFFSET 5.5575 -4.8840 -1.0195
									CHANNELS 3 Zrotation Xrotation Yrotation
									End Site
									{
										OFFSET 6.4062 -3.6272 -1.9351
									}
								}
							}
						}
					}
				}
				JOINT RightCollar
				{
					OFFSET 4.4358 8.5222 -0.1095
					CHANNELS 3 Zrotation Xrotation Yrotation
					JOINT RightUpArm
					{
						OFFSET 5.6389 7.4120 5.5940
						CHANNELS 3 Zrotation Xrotation Yrotation
						JOINT RightLowArm
						{
							OFFSET 9.4899 -14.5990 2.1342
							CHANNELS 3 Zrotation Xrotation Yrotation
							JOINT RightHand
							{
								OFFSET 16.3081 -1.5988 -2.0612
								CHANNELS 3 Zrotation Xrotation Yrotation
								JOINT rfingers
								{
									OFFSET 5.4318 -5.1971 0.1595
									CHANNELS 3 Zrotation Xrotation Yrotation
									End Site
									{
										OFFSET 6.6046 -3.8687 0.3939
									}
								}
							}
						}
					}
				}
			}
		}
	}
	JOINT uppertail
	{
		OFFSET 0.0000 0.0000 0.0000
		CHANNELS 3 Zrotation Xrotation Yrotation
		JOINT middletail
		{
			OFFSET -0.0024 -1.6325 -0.2321
			CHANNELS 3 Zrotation Xrotation Yrotation
			JOINT lowertail
			{
				OFFSET -0.6951 -7.2058 -0.3238
				CHANNELS 3 Zrotation Xrotation Yrotation
				End Site
				{
					OFFSET -1.4899 -6.5767 -0.4887
				}
			}
		}
	}
}
MOTION
Frames: 7
Frame Time: 0.033333
-44.6264 52.8883 -67.8514 -66.1593 3.1244 -2.0089 11.8565 -4.2179 0.6391 2.4145 1.6424 -0.2033 -4.6786 0.2291 -12.9528 0.0000 0.0000 0.0000 15.0895 2.0111 -0.6335 0.2037 -1.2123 -0.4503 -3.8892 0.2603 8.9296 0.0000 0.0000 0.0000 5.6178 0.7489 -1.9006 -1.1313 -2.9602 -0.8461 -3.3984 -1.4352 -0.6633 10.3588 -1.7638 -2.3145 7.6564 5.2698 1.3567 -3.0942 -6.2933 5.4785 2.4015 11.8562 -12.6726 -6.8925 1.5391 -1.1123 38.7173 13.7680 1.5644 -0.5104 -0.2608 -0.1938 -2.2951 2.5966 -2.6442 8.4533 12.4574 -1.3502 2.3654 3.1984 0.5479 23.9685 -3.4218 2.0683 -0.6431 0.0690 0.0513 -36.2516 -7.7213 -118.3817 7.0201 -14.5455 -39.2104 26.3959 -13.5362 -14.8036 
-45.1536 49.7310 -68.1401 -61.6601 3.6126 -2.0359 6.8993 4.4554 -10.2093 4.4911 2.2827 0.1719 -3.9160 -0.8253 -3.9524 0.0000 0.0000 0.0000 9.6653 -4.6987 6.9177 1.8369 -1.5846 -0.6394 -2.1682 0.1371 4.2331 0.0000 0.0000 0.0000 6.1629 1.2509 -2.5796 -0.9929 -4.4739 -0.5644 -3.3480 -2.8361 -0.2405 7.0265 0.4119 -2.3736 3.4513 3.8817 1.9017 -0.9499 -2.2682 6.2764 -4.2902 14.4916 -15.0190 -5.7158 0.8141 -0.8126 34.3221 11.3003 0.7401 -0.5104 -0.2608 -0.1938 -2.7489 3.1898 -3.0220 3.5822 11.5085 0.5174 1.2409 2.9482 0.2652 25.2403 -4.3103 0.7649 -0.6431 0.0690 0.0513 -40.6861 -7.7358 -116.9225 6.6729 -14.8318 -39.9168 27.3275 -14.3122 -14.4825 
-46.0345 47.2269 -68.4035 -57.4905 3.5135 -3.0083 3.4464 -1.4821 -5.6490 -4.1650 -0.2829 -1.5352 11.1051 5.2524 3.8659 0.0000 0.0000 0.0000 5.1936 -0.6099 4.2408 -4.0457 -0.2715 0.0898 10.6119 -3.4989 0.5176 0.0000 0.0000 0.0000 5.4063 1.5182 -1.9941 1.0009 -3.6622 0.0528 -0.0230 -2.8290 0.3402 1.5653 0.4563 -2.1343 -1.7381 2.1587 1.2759 0.6923 0.5376 4.7352 -10.4189 13.0276 -14.7624 -8.7557 -2.8171 -0.9839 27.4315 7.6383 -0.8951 -0.5104 -0.2608 -0.1938 -1.6082 2.1531 0.6794 -2.9293 12.2963 -5.1892 -4.3669 -1.0973 -0.9745 27.9869 -3.2587 2.6576 -0.6431 0.0690 0.0513 -43.9652 -6.8798 -117.5419 6.7498 -15.0706 -40.1155 28.3699 -14.6683 -14.3032 
-46.5392 46.2307 -68.5548 -56.0915 3.1662 -3.1221 2.9782 -6.0341 -2.9357 -7.0266 -1.0662 -2.1786 17.3044 9.4555 8.1081 0.0000 0.0000 0.0000 4.7602 2.8539 2.1039 -6.1130 0.1705 0.3770 13.2337 -5.1836 -2.8217 0.0000 0.0000 0.0000 4.0278 2.0615 -1.5861 4.1858 -2.2741 0.3585 6.1669 -2.3851 0.7780 -3.9975 -0.6039 -1.8244 -6.1053 0.0162 -0.4263 1.6195 1.5397 2.4032 -14.6914 11.3391 -11.7788 -6.4252 -2.2615 -0.6020 6.0896 -1.2353 -6.7597 -0.5104 -0.2608 -0.1938 -0.6333 1.3809 3.0114 -5.4152 13.7985 -10.1508 -14.1657 -5.0435 -3.4137 28.4686 -2.2904 4.0773 -0.6431 0.0690 0.0513 -40.6943 -2.3764 -125.0967 8.4288 -14.7985 -36.1753 28.8849 -14.0198 -13.1686 
-46.5197 46.5468 -68.5827 -53.6472 2.8067 -2.0646 1.9573 -6.2997 -4.7978 -8.4601 -1.4453 -2.5146 16.8024 10.1236 10.5734 0.0000 0.0000 0.0000 3.2268 2.3402 3.5178 -7.1898 0.3963 0.5327 11.3196 -5.4954 -6.4836 0.0000 0.0000 0.0000 0.6304 2.5309 -1.6337 5.3893 -1.5584 0.2022 10.6300 -1.9827 0.7869 -5.9292 -1.9437 -1.7685 -8.5511 -1.4352 -2.2436 1.3559 1.1880 2.7579 -9.8791 11.5661 -10.8154 -4.6935 -4.4622 -0.0191 -11.6763 -6.8093 -8.8045 -0.5104 -0.2608 -0.1938 -0.0916 0.8506 3.4874 -5.1993 12.4786 -11.5942 -17.3492 -2.8517 -4.5397 20.5806 -2.6530 3.1745 -0.6431 0.0690 0.0513 -34.9873 5.6714 -139.8766 10.6595 -13.1783 -28.6476 28.4928 -12.9345 -10.7718 
-46.2140 47.7362 -68.7101 -51.4016 2.6480 -2.0402 1.8072 -6.3366 -3.2863 -9.0187 -1.5905 -2.6480 13.0842 7.3099 8.3796 0.0000 0.0000 0.0000 2.4049 1.9249 2.9140 -8.4980 0.6665 0.7275 8.2565 -3.9565 -5.3155 0.0000 0.0000 0.0000 -2.0161 2.0493 -1.4776 4.6864 -1.4427 -0.0500 10.4893 -1.4170 0.3688 -3.4968 -3.0214 -1.2484 -6.4509 -0.8885 -1.7273 -0.0396 -1.1866 2.8880 -3.2424 13.8313 -9.1316 -3.3343 -7.5340 0.6151 -6.5814 -4.4946 -0.7902 -0.5104 -0.2608 -0.1938 -0.4551 1.0194 2.2330 -3.5506 9.6968 -9.2668 -13.9367 2.1368 -3.9794 13.8363 -3.2083 1.0243 -0.6431 0.0690 0.0513 -26.1064 12.1536 -155.7640 12.2733 -11.0101 -19.6712 27.0629 -12.3764 -7.5686 
-45.8095 49.2175 -68.9275 -50.8110 2.6635 -2.2487 3.1777 -5.8460 -0.0708 -7.4552 -1.1805 -2.2781 6.3678 2.9949 2.3990 0.0000 0.0000 0.0000 4.1759 2.0179 -0.9803 -8.6944 0.7067 0.7572 3.8832 -1.6936 -0.6308 0.0000 0.0000 0.0000 -3.2884 1.3080 -1.1841 4.5230 -1.1045 -0.2991 7.0021 -0.7309 -0.1593 1.3819 -4.3154 -0.4775 -0.9481 0.9463 -0.2010 -0.0711 -1.4156 1.9679 -3.5425 11.7817 -5.2142 4.3068 -9.4185 2.1775 4.3125 1.3426 3.3429 -0.5104 -0.2608 -0.1938 -1.3304 1.9338 1.4549 0.3734 8.8447 -9.2019 -10.7645 3.3023 -3.1385 13.3194 -3.3879 0.4202 -0.6431 0.0690 0.0513 -14.4952 15.1719 -169.6662 12.6255 -8.8695 -9.8241 23.9257 -12.6739 -3.8293 
